<?xml version="1.0" encoding="UTF-8" standalone="no"?>
<!DOCTYPE svg PUBLIC "-//W3C//DTD SVG 1.1//EN"
 "http://www.w3.org/Graphics/SVG/1.1/DTD/svg11.dtd">
<!-- Generated by graphviz version 2.47.0 (20210316.0004)
 -->
<!-- Title: dependencies Pages: 1 -->
<svg width="1750pt" height="284pt"
 viewBox="0.00 0.00 1750.00 284.00" xmlns="http://www.w3.org/2000/svg" xmlns:xlink="http://www.w3.org/1999/xlink">
<g id="graph0" class="graph" transform="scale(1 1) rotate(0) translate(4 280)">
<title>dependencies</title>
<polygon fill="white" stroke="transparent" points="-4,4 -4,-280 1746,-280 1746,4 -4,4"/>
<text text-anchor="start" x="850.01" y="-42.4" font-family="Times-12" font-weight="bold" font-size="14.00">Legend</text>
<polygon fill="#ffffb3" stroke="transparent" points="637,-10 637,-30 657,-30 657,-10 637,-10"/>
<text text-anchor="start" x="660.63" y="-15.4" font-family="Times-12" font-size="14.00"> &#160;Declarations</text>
<polygon fill="#8dd3c7" stroke="transparent" points="750,-10 750,-30 770,-30 770,-10 750,-10"/>
<text text-anchor="start" x="773.73" y="-15.4" font-family="Times-12" font-size="14.00"> &#160;Module</text>
<polygon fill="#80b1d3" stroke="transparent" points="836,-10 836,-30 856,-30 856,-10 836,-10"/>
<text text-anchor="start" x="859.78" y="-15.4" font-family="Times-12" font-size="14.00"> &#160;Bootstrap</text>
<polygon fill="#fdb462" stroke="transparent" points="933,-10 933,-30 953,-30 953,-10 933,-10"/>
<text text-anchor="start" x="956.67" y="-15.4" font-family="Times-12" font-size="14.00"> &#160;Providers</text>
<polygon fill="#fb8072" stroke="transparent" points="1029,-10 1029,-30 1049,-30 1049,-10 1029,-10"/>
<text text-anchor="start" x="1052.73" y="-15.4" font-family="Times-12" font-size="14.00"> &#160;Exports</text>
<g id="clust1" class="cluster">
<title>cluster_AppModule</title>
<polygon fill="none" stroke="black" stroke-dasharray="1,5" points="8,-70 8,-268 1734,-268 1734,-70 8,-70"/>
</g>
<g id="clust2" class="cluster">
<title>cluster_AppModule_declarations</title>
<polygon fill="none" stroke="black" points="392,-78 392,-130 1726,-130 1726,-78 392,-78"/>
</g>
<g id="clust11" class="cluster">
<title>cluster_AppModule_imports</title>
<polygon fill="none" stroke="black" points="240,-78 240,-130 384,-130 384,-78 240,-78"/>
</g>
<g id="clust13" class="cluster">
<title>cluster_AppModule_bootstrap</title>
<polygon fill="none" stroke="black" points="827,-208 827,-260 951,-260 951,-208 827,-208"/>
</g>
<g id="clust14" class="cluster">
<title>cluster_AppModule_providers</title>
<polygon fill="none" stroke="black" points="16,-78 16,-130 232,-130 232,-78 16,-78"/>
</g>
<!-- AppComponent -->
<g id="node1" class="node">
<title>AppComponent</title>
<polygon fill="#ffffb3" stroke="black" points="1717.94,-122 1612.06,-122 1612.06,-86 1717.94,-86 1717.94,-122"/>
<text text-anchor="middle" x="1665" y="-99.8" font-family="Times,serif" font-size="14.00">AppComponent</text>
</g>
<!-- AppModule -->
<g id="node9" class="node">
<title>AppModule</title>
<polygon fill="#8dd3c7" stroke="black" points="930.66,-187 927.66,-191 906.66,-191 903.66,-187 847.34,-187 847.34,-151 930.66,-151 930.66,-187"/>
<text text-anchor="middle" x="889" y="-164.8" font-family="Times,serif" font-size="14.00">AppModule</text>
</g>
<!-- AppComponent&#45;&gt;AppModule -->
<g id="edge1" class="edge">
<title>AppComponent&#45;&gt;AppModule</title>
<path fill="none" stroke="black" d="M1665,-122.01C1665,-144.49 1665,-180 1665,-180 1665,-180 940.72,-180 940.72,-180"/>
<polygon fill="black" stroke="black" points="940.72,-176.5 930.72,-180 940.72,-183.5 940.72,-176.5"/>
</g>
<!-- FamilyAccountPageComponent -->
<g id="node2" class="node">
<title>FamilyAccountPageComponent</title>
<polygon fill="#ffffb3" stroke="black" points="1593.64,-122 1398.36,-122 1398.36,-86 1593.64,-86 1593.64,-122"/>
<text text-anchor="middle" x="1496" y="-99.8" font-family="Times,serif" font-size="14.00">FamilyAccountPageComponent</text>
</g>
<!-- FamilyAccountPageComponent&#45;&gt;AppModule -->
<g id="edge2" class="edge">
<title>FamilyAccountPageComponent&#45;&gt;AppModule</title>
<path fill="none" stroke="black" d="M1496,-122.13C1496,-142.57 1496,-173 1496,-173 1496,-173 940.72,-173 940.72,-173"/>
<polygon fill="black" stroke="black" points="940.72,-169.5 930.72,-173 940.72,-176.5 940.72,-169.5"/>
</g>
<!-- HomePageComponent -->
<g id="node3" class="node">
<title>HomePageComponent</title>
<polygon fill="#ffffb3" stroke="black" points="1380.26,-122 1237.74,-122 1237.74,-86 1380.26,-86 1380.26,-122"/>
<text text-anchor="middle" x="1309" y="-99.8" font-family="Times,serif" font-size="14.00">HomePageComponent</text>
</g>
<!-- HomePageComponent&#45;&gt;AppModule -->
<g id="edge3" class="edge">
<title>HomePageComponent&#45;&gt;AppModule</title>
<path fill="none" stroke="black" d="M1309,-122.27C1309,-140.56 1309,-166 1309,-166 1309,-166 940.81,-166 940.81,-166"/>
<polygon fill="black" stroke="black" points="940.81,-162.5 930.81,-166 940.81,-169.5 940.81,-162.5"/>
</g>
<!-- InvoicePageComponent -->
<g id="node4" class="node">
<title>InvoicePageComponent</title>
<polygon fill="#ffffb3" stroke="black" points="1219.03,-122 1068.97,-122 1068.97,-86 1219.03,-86 1219.03,-122"/>
<text text-anchor="middle" x="1144" y="-99.8" font-family="Times,serif" font-size="14.00">InvoicePageComponent</text>
</g>
<!-- InvoicePageComponent&#45;&gt;AppModule -->
<g id="edge4" class="edge">
<title>InvoicePageComponent&#45;&gt;AppModule</title>
<path fill="none" stroke="black" d="M1144,-122.01C1144,-138.05 1144,-159 1144,-159 1144,-159 940.82,-159 940.82,-159"/>
<polygon fill="black" stroke="black" points="940.82,-155.5 930.82,-159 940.82,-162.5 940.82,-155.5"/>
</g>
<!-- LandingPageComponent -->
<g id="node5" class="node">
<title>LandingPageComponent</title>
<polygon fill="#ffffb3" stroke="black" points="1050.7,-122 895.3,-122 895.3,-86 1050.7,-86 1050.7,-122"/>
<text text-anchor="middle" x="973" y="-99.8" font-family="Times,serif" font-size="14.00">LandingPageComponent</text>
</g>
<!-- LandingPageComponent&#45;&gt;AppModule -->
<g id="edge5" class="edge">
<title>LandingPageComponent&#45;&gt;AppModule</title>
<path fill="none" stroke="black" d="M913.11,-122.11C913.11,-122.11 913.11,-140.99 913.11,-140.99"/>
<polygon fill="black" stroke="black" points="909.61,-140.99 913.11,-150.99 916.61,-140.99 909.61,-140.99"/>
</g>
<!-- LoginPageComponent -->
<g id="node6" class="node">
<title>LoginPageComponent</title>
<polygon fill="#ffffb3" stroke="black" points="876.99,-122 735.01,-122 735.01,-86 876.99,-86 876.99,-122"/>
<text text-anchor="middle" x="806" y="-99.8" font-family="Times,serif" font-size="14.00">LoginPageComponent</text>
</g>
<!-- LoginPageComponent&#45;&gt;AppModule -->
<g id="edge6" class="edge">
<title>LoginPageComponent&#45;&gt;AppModule</title>
<path fill="none" stroke="black" d="M862.08,-122.11C862.08,-122.11 862.08,-140.99 862.08,-140.99"/>
<polygon fill="black" stroke="black" points="858.58,-140.99 862.08,-150.99 865.58,-140.99 858.58,-140.99"/>
</g>
<!-- NavbarComponent -->
<g id="node7" class="node">
<title>NavbarComponent</title>
<polygon fill="#ffffb3" stroke="black" points="717.03,-122 594.97,-122 594.97,-86 717.03,-86 717.03,-122"/>
<text text-anchor="middle" x="656" y="-99.8" font-family="Times,serif" font-size="14.00">NavbarComponent</text>
</g>
<!-- NavbarComponent&#45;&gt;AppModule -->
<g id="edge7" class="edge">
<title>NavbarComponent&#45;&gt;AppModule</title>
<path fill="none" stroke="black" d="M656,-122.01C656,-138.05 656,-159 656,-159 656,-159 837.08,-159 837.08,-159"/>
<polygon fill="black" stroke="black" points="837.08,-162.5 847.08,-159 837.08,-155.5 837.08,-162.5"/>
</g>
<!-- RegistrationPageComponent -->
<g id="node8" class="node">
<title>RegistrationPageComponent</title>
<polygon fill="#ffffb3" stroke="black" points="576.48,-122 399.52,-122 399.52,-86 576.48,-86 576.48,-122"/>
<text text-anchor="middle" x="488" y="-99.8" font-family="Times,serif" font-size="14.00">RegistrationPageComponent</text>
</g>
<!-- RegistrationPageComponent&#45;&gt;AppModule -->
<g id="edge8" class="edge">
<title>RegistrationPageComponent&#45;&gt;AppModule</title>
<path fill="none" stroke="black" d="M488,-122.27C488,-140.56 488,-166 488,-166 488,-166 837.22,-166 837.22,-166"/>
<polygon fill="black" stroke="black" points="837.22,-169.5 847.22,-166 837.22,-162.5 837.22,-169.5"/>
</g>
<!-- AppComponent  -->
<g id="node11" class="node">
<title>AppComponent </title>
<polygon fill="#80b1d3" stroke="black" points="943.44,-252 834.56,-252 834.56,-216 943.44,-216 943.44,-252"/>
<text text-anchor="middle" x="889" y="-229.8" font-family="Times,serif" font-size="14.00">AppComponent </text>
</g>
<!-- AppModule&#45;&gt;AppComponent  -->
<g id="edge10" class="edge">
<title>AppModule&#45;&gt;AppComponent </title>
<path fill="none" stroke="black" stroke-dasharray="1,5" d="M889,-187.11C889,-187.11 889,-205.99 889,-205.99"/>
<polygon fill="black" stroke="black" points="885.5,-205.99 889,-215.99 892.5,-205.99 885.5,-205.99"/>
</g>
<!-- AppRoutingModule -->
<g id="node10" class="node">
<title>AppRoutingModule</title>
<polygon fill="#8dd3c7" stroke="black" points="376.27,-122 373.27,-126 352.27,-126 349.27,-122 247.73,-122 247.73,-86 376.27,-86 376.27,-122"/>
<text text-anchor="middle" x="312" y="-99.8" font-family="Times,serif" font-size="14.00">AppRoutingModule</text>
</g>
<!-- AppRoutingModule&#45;&gt;AppModule -->
<g id="edge9" class="edge">
<title>AppRoutingModule&#45;&gt;AppModule</title>
<path fill="none" stroke="black" d="M312,-122.13C312,-142.57 312,-173 312,-173 312,-173 837.04,-173 837.04,-173"/>
<polygon fill="black" stroke="black" points="837.04,-176.5 847.04,-173 837.04,-169.5 837.04,-176.5"/>
</g>
<!-- HttpInterceptorService -->
<g id="node12" class="node">
<title>HttpInterceptorService</title>
<ellipse fill="#fdb462" stroke="black" cx="124" cy="-104" rx="99.53" ry="18"/>
<text text-anchor="middle" x="124" y="-99.8" font-family="Times,serif" font-size="14.00">HttpInterceptorService</text>
</g>
<!-- HttpInterceptorService&#45;&gt;AppModule -->
<g id="edge11" class="edge">
<title>HttpInterceptorService&#45;&gt;AppModule</title>
<path fill="none" stroke="black" d="M124,-122.01C124,-144.49 124,-180 124,-180 124,-180 837.33,-180 837.33,-180"/>
<polygon fill="black" stroke="black" points="837.33,-183.5 847.33,-180 837.33,-176.5 837.33,-183.5"/>
</g>
</g>
</svg>
