<?xml version="1.0" encoding="UTF-8" standalone="no"?>
<!DOCTYPE svg PUBLIC "-//W3C//DTD SVG 1.1//EN"
 "http://www.w3.org/Graphics/SVG/1.1/DTD/svg11.dtd">
<!-- Generated by graphviz version 2.47.0 (20210316.0004)
 -->
<!-- Title: dependencies Pages: 1 -->
<svg width="1750pt" height="284pt"
 viewBox="0.00 0.00 1750.00 284.00" xmlns="http://www.w3.org/2000/svg" xmlns:xlink="http://www.w3.org/1999/xlink">
<g id="graph0" class="graph" transform="scale(1 1) rotate(0) translate(4 280)">
<title>dependencies</title>
<polygon fill="white" stroke="transparent" points="-4,4 -4,-280 1746,-280 1746,4 -4,4"/>
<text text-anchor="start" x="850.01" y="-42.4" font-family="Times-12" font-weight="bold" font-size="14.00">Legend</text>
<polygon fill="#ffffb3" stroke="transparent" points="637,-10 637,-30 657,-30 657,-10 637,-10"/>
<text text-anchor="start" x="660.63" y="-15.4" font-family="Times-12" font-size="14.00"> &#160;Declarations</text>
<polygon fill="#8dd3c7" stroke="transparent" points="750,-10 750,-30 770,-30 770,-10 750,-10"/>
<text text-anchor="start" x="773.73" y="-15.4" font-family="Times-12" font-size="14.00"> &#160;Module</text>
<polygon fill="#80b1d3" stroke="transparent" points="836,-10 836,-30 856,-30 856,-10 836,-10"/>
<text text-anchor="start" x="859.78" y="-15.4" font-family="Times-12" font-size="14.00"> &#160;Bootstrap</text>
<polygon fill="#fdb462" stroke="transparent" points="933,-10 933,-30 953,-30 953,-10 933,-10"/>
<text text-anchor="start" x="956.67" y="-15.4" font-family="Times-12" font-size="14.00"> &#160;Providers</text>
<polygon fill="#fb8072" stroke="transparent" points="1029,-10 1029,-30 1049,-30 1049,-10 1029,-10"/>
<text text-anchor="start" x="1052.73" y="-15.4" font-family="Times-12" font-size="14.00"> &#160;Exports</text>
<g id="clust1" class="cluster">
<title>cluster_AppModule</title>
<polygon fill="none" stroke="black" stroke-dasharray="1,5" points="8,-70 8,-268 1734,-268 1734,-70 8,-70"/>
</g>
<g id="clust13" class="cluster">
<title>cluster_AppModule_bootstrap</title>
<polygon fill="none" stroke="black" points="772,-208 772,-260 896,-260 896,-208 772,-208"/>
</g>
<g id="clust14" class="cluster">
<title>cluster_AppModule_providers</title>
<polygon fill="none" stroke="black" points="1510,-78 1510,-130 1726,-130 1726,-78 1510,-78"/>
</g>
<g id="clust2" class="cluster">
<title>cluster_AppModule_declarations</title>
<polygon fill="none" stroke="black" points="168,-78 168,-130 1502,-130 1502,-78 168,-78"/>
</g>
<g id="clust11" class="cluster">
<title>cluster_AppModule_imports</title>
<polygon fill="none" stroke="black" points="16,-78 16,-130 160,-130 160,-78 16,-78"/>
</g>
<!-- AppComponent -->
<g id="node1" class="node">
<title>AppComponent</title>
<polygon fill="#ffffb3" stroke="black" points="1493.94,-122 1388.06,-122 1388.06,-86 1493.94,-86 1493.94,-122"/>
<text text-anchor="middle" x="1441" y="-99.8" font-family="Times,serif" font-size="14.00">AppComponent</text>
</g>
<!-- AppModule -->
<g id="node9" class="node">
<title>AppModule</title>
<polygon fill="#8dd3c7" stroke="black" points="875.66,-187 872.66,-191 851.66,-191 848.66,-187 792.34,-187 792.34,-151 875.66,-151 875.66,-187"/>
<text text-anchor="middle" x="834" y="-164.8" font-family="Times,serif" font-size="14.00">AppModule</text>
</g>
<!-- AppComponent&#45;&gt;AppModule -->
<g id="edge1" class="edge">
<title>AppComponent&#45;&gt;AppModule</title>
<path fill="none" stroke="black" d="M1441,-122.13C1441,-142.57 1441,-173 1441,-173 1441,-173 885.72,-173 885.72,-173"/>
<polygon fill="black" stroke="black" points="885.72,-169.5 875.72,-173 885.72,-176.5 885.72,-169.5"/>
</g>
<!-- FamilyAccountPageComponent -->
<g id="node2" class="node">
<title>FamilyAccountPageComponent</title>
<polygon fill="#ffffb3" stroke="black" points="1369.64,-122 1174.36,-122 1174.36,-86 1369.64,-86 1369.64,-122"/>
<text text-anchor="middle" x="1272" y="-99.8" font-family="Times,serif" font-size="14.00">FamilyAccountPageComponent</text>
</g>
<!-- FamilyAccountPageComponent&#45;&gt;AppModule -->
<g id="edge2" class="edge">
<title>FamilyAccountPageComponent&#45;&gt;AppModule</title>
<path fill="none" stroke="black" d="M1272,-122.27C1272,-140.56 1272,-166 1272,-166 1272,-166 886,-166 886,-166"/>
<polygon fill="black" stroke="black" points="886,-162.5 876,-166 886,-169.5 886,-162.5"/>
</g>
<!-- HomePageComponent -->
<g id="node3" class="node">
<title>HomePageComponent</title>
<polygon fill="#ffffb3" stroke="black" points="1156.26,-122 1013.74,-122 1013.74,-86 1156.26,-86 1156.26,-122"/>
<text text-anchor="middle" x="1085" y="-99.8" font-family="Times,serif" font-size="14.00">HomePageComponent</text>
</g>
<!-- HomePageComponent&#45;&gt;AppModule -->
<g id="edge3" class="edge">
<title>HomePageComponent&#45;&gt;AppModule</title>
<path fill="none" stroke="black" d="M1085,-122.01C1085,-138.05 1085,-159 1085,-159 1085,-159 885.73,-159 885.73,-159"/>
<polygon fill="black" stroke="black" points="885.73,-155.5 875.73,-159 885.73,-162.5 885.73,-155.5"/>
</g>
<!-- InvoicePageComponent -->
<g id="node4" class="node">
<title>InvoicePageComponent</title>
<polygon fill="#ffffb3" stroke="black" points="995.03,-122 844.97,-122 844.97,-86 995.03,-86 995.03,-122"/>
<text text-anchor="middle" x="920" y="-99.8" font-family="Times,serif" font-size="14.00">InvoicePageComponent</text>
</g>
<!-- InvoicePageComponent&#45;&gt;AppModule -->
<g id="edge4" class="edge">
<title>InvoicePageComponent&#45;&gt;AppModule</title>
<path fill="none" stroke="black" d="M860.28,-122.11C860.28,-122.11 860.28,-140.99 860.28,-140.99"/>
<polygon fill="black" stroke="black" points="856.78,-140.99 860.28,-150.99 863.78,-140.99 856.78,-140.99"/>
</g>
<!-- LandingPageComponent -->
<g id="node5" class="node">
<title>LandingPageComponent</title>
<polygon fill="#ffffb3" stroke="black" points="826.7,-122 671.3,-122 671.3,-86 826.7,-86 826.7,-122"/>
<text text-anchor="middle" x="749" y="-99.8" font-family="Times,serif" font-size="14.00">LandingPageComponent</text>
</g>
<!-- LandingPageComponent&#45;&gt;AppModule -->
<g id="edge5" class="edge">
<title>LandingPageComponent&#45;&gt;AppModule</title>
<path fill="none" stroke="black" d="M809.39,-122.11C809.39,-122.11 809.39,-140.99 809.39,-140.99"/>
<polygon fill="black" stroke="black" points="805.89,-140.99 809.39,-150.99 812.89,-140.99 805.89,-140.99"/>
</g>
<!-- LoginPageComponent -->
<g id="node6" class="node">
<title>LoginPageComponent</title>
<polygon fill="#ffffb3" stroke="black" points="652.99,-122 511.01,-122 511.01,-86 652.99,-86 652.99,-122"/>
<text text-anchor="middle" x="582" y="-99.8" font-family="Times,serif" font-size="14.00">LoginPageComponent</text>
</g>
<!-- LoginPageComponent&#45;&gt;AppModule -->
<g id="edge6" class="edge">
<title>LoginPageComponent&#45;&gt;AppModule</title>
<path fill="none" stroke="black" d="M582,-122.01C582,-138.05 582,-159 582,-159 582,-159 782.1,-159 782.1,-159"/>
<polygon fill="black" stroke="black" points="782.1,-162.5 792.1,-159 782.1,-155.5 782.1,-162.5"/>
</g>
<!-- NavbarComponent -->
<g id="node7" class="node">
<title>NavbarComponent</title>
<polygon fill="#ffffb3" stroke="black" points="493.03,-122 370.97,-122 370.97,-86 493.03,-86 493.03,-122"/>
<text text-anchor="middle" x="432" y="-99.8" font-family="Times,serif" font-size="14.00">NavbarComponent</text>
</g>
<!-- NavbarComponent&#45;&gt;AppModule -->
<g id="edge7" class="edge">
<title>NavbarComponent&#45;&gt;AppModule</title>
<path fill="none" stroke="black" d="M432,-122.27C432,-140.56 432,-166 432,-166 432,-166 782.12,-166 782.12,-166"/>
<polygon fill="black" stroke="black" points="782.12,-169.5 792.12,-166 782.12,-162.5 782.12,-169.5"/>
</g>
<!-- RegistrationPageComponent -->
<g id="node8" class="node">
<title>RegistrationPageComponent</title>
<polygon fill="#ffffb3" stroke="black" points="352.48,-122 175.52,-122 175.52,-86 352.48,-86 352.48,-122"/>
<text text-anchor="middle" x="264" y="-99.8" font-family="Times,serif" font-size="14.00">RegistrationPageComponent</text>
</g>
<!-- RegistrationPageComponent&#45;&gt;AppModule -->
<g id="edge8" class="edge">
<title>RegistrationPageComponent&#45;&gt;AppModule</title>
<path fill="none" stroke="black" d="M264,-122.13C264,-142.57 264,-173 264,-173 264,-173 782.09,-173 782.09,-173"/>
<polygon fill="black" stroke="black" points="782.09,-176.5 792.09,-173 782.09,-169.5 782.09,-176.5"/>
</g>
<!-- AppComponent  -->
<g id="node11" class="node">
<title>AppComponent </title>
<polygon fill="#80b1d3" stroke="black" points="888.44,-252 779.56,-252 779.56,-216 888.44,-216 888.44,-252"/>
<text text-anchor="middle" x="834" y="-229.8" font-family="Times,serif" font-size="14.00">AppComponent </text>
</g>
<!-- AppModule&#45;&gt;AppComponent  -->
<g id="edge10" class="edge">
<title>AppModule&#45;&gt;AppComponent </title>
<path fill="none" stroke="black" stroke-dasharray="1,5" d="M834,-187.11C834,-187.11 834,-205.99 834,-205.99"/>
<polygon fill="black" stroke="black" points="830.5,-205.99 834,-215.99 837.5,-205.99 830.5,-205.99"/>
</g>
<!-- AppRoutingModule -->
<g id="node10" class="node">
<title>AppRoutingModule</title>
<polygon fill="#8dd3c7" stroke="black" points="152.27,-122 149.27,-126 128.27,-126 125.27,-122 23.73,-122 23.73,-86 152.27,-86 152.27,-122"/>
<text text-anchor="middle" x="88" y="-99.8" font-family="Times,serif" font-size="14.00">AppRoutingModule</text>
</g>
<!-- AppRoutingModule&#45;&gt;AppModule -->
<g id="edge9" class="edge">
<title>AppRoutingModule&#45;&gt;AppModule</title>
<path fill="none" stroke="black" d="M88,-122.01C88,-144.49 88,-180 88,-180 88,-180 782.29,-180 782.29,-180"/>
<polygon fill="black" stroke="black" points="782.29,-183.5 792.29,-180 782.29,-176.5 782.29,-183.5"/>
</g>
<!-- HttpInterceptorService -->
<g id="node12" class="node">
<title>HttpInterceptorService</title>
<ellipse fill="#fdb462" stroke="black" cx="1618" cy="-104" rx="99.53" ry="18"/>
<text text-anchor="middle" x="1618" y="-99.8" font-family="Times,serif" font-size="14.00">HttpInterceptorService</text>
</g>
<!-- HttpInterceptorService&#45;&gt;AppModule -->
<g id="edge11" class="edge">
<title>HttpInterceptorService&#45;&gt;AppModule</title>
<path fill="none" stroke="black" d="M1618,-122.01C1618,-144.49 1618,-180 1618,-180 1618,-180 885.87,-180 885.87,-180"/>
<polygon fill="black" stroke="black" points="885.87,-176.5 875.87,-180 885.87,-183.5 885.87,-176.5"/>
</g>
</g>
</svg>
